<?xml version="1.0" standalone="no"?><svg xmlns="http://www.w3.org/2000/svg" viewBox="0 0 1440 320"><path fill="#0099ff" fill-opacity="1" d="M0,224L30,218.7C60,213,120,203,180,170.7C240,139,300,85,360,90.7C420,96,480,160,540,202.7C600,245,660,267,720,261.3C780,256,840,224,900,208C960,192,1020,192,1080,202.7C1140,213,1200,235,1260,245.3C1320,256,1380,256,1410,256L1440,256L1440,320L1410,320C1380,320,1320,320,1260,320C1200,320,1140,320,1080,320C1020,320,960,320,900,320C840,320,780,320,720,320C660,320,600,320,540,320C480,320,420,320,360,320C300,320,240,320,180,320C120,320,60,320,30,320L0,320Z"></path></svg>